<?xml version="1.0" encoding="UTF-8" standalone="no"?>
<svg
   
   
   
   
   xmlns="http://www.w3.org/2000/svg"
   version="1.1"
   x="0px"
   y="0px"
   viewBox="0 0 48.001938 42.380005"
   
   id="svg300"
   width="48.001938"
   height="42.380005"><g
     id="g294"
     transform="translate(-1.9990314,-4.8099975)"><path
       d="m 31.129412,46.779968 c -0.190003,0.26001 -0.489991,0.410034 -0.809998,0.410034 H 2.9994061 c -0.3200073,0 -0.6199951,-0.150024 -0.8099976,-0.410034 C 1.9994061,46.520081 1.9494183,46.179993 2.0493939,45.879944 l 1.3200073,-4 c 0.01001,-0.03003 0.02002,-0.06995 0.040039,-0.09998 H 29.90944 c 0.01996,0.03003 0.02997,0.06995 0.03998,0.09998 l 1.320008,4 c 0.09998,0.300049 0.04999,0.640137 -0.140014,0.900024 z"
       id="path280" /><path
       d="m 26.949419,39.799988 c -0.08002,-0.02002 -0.159973,-0.02002 -0.23999,-0.02002 H 6.6093912 c -0.079956,0 -0.1599731,0 -0.2399902,0.02002 l 0.01001,-0.02002 0.7000122,-2.140014 c 0.3300171,-1.02002 1.3599854,-1.699952 2.5499878,-1.699952 h 14.059998 c 1.190003,0 2.220032,0.679932 2.549988,1.699952 l 0.700012,2.140014 z"
       id="path282" /><g
       id="g288"><path
         d="m 49.215591,33.471497 c -2.202148,-2.393555 -5.401367,-5.269532 -9.010742,-8.09961 -2.262207,-1.772461 -4.520019,-3.39331 -6.586548,-4.740478 l -4.161131,5.304687 c 1.802979,1.686279 3.916808,3.492066 6.178343,5.264893 3.608399,2.827148 7.166016,5.248047 10.011719,6.811523 0.452148,0.25293 0.943359,0.375 1.428711,0.375 0.870117,0 1.72168,-0.392578 2.296875,-1.125 0.894531,-1.140625 0.826172,-2.737305 -0.157227,-3.791015 z"
         id="path284" /><path
         d="m 26.457598,26.521057 7.014036,-8.942627 c 0.336975,0.139526 0.695801,0.221558 1.0578,0.221558 0.859986,0 1.649964,-0.390015 2.179993,-1.059937 0.950012,-1.210083 0.72998,-2.950073 -0.470032,-3.890136 L 26.729448,5.3999633 C 26.249407,5.0200805 25.639421,4.8099975 25.029436,4.8099975 c -0.859985,0 -1.660034,0.3800049 -2.190002,1.0599365 -0.781616,0.9978027 -0.757263,2.369873 -0.03491,3.3464355 l -7.003297,8.9484865 c -0.33783,-0.141602 -0.701111,-0.224854 -1.071778,-0.224854 -0.860046,0 -1.650024,0.390015 -2.180053,1.060059 -0.940003,1.209961 -0.729981,2.949951 0.470031,3.889893 l 9.510011,7.450073 c 0.479981,0.380005 1.089966,0.589966 1.709961,0.589966 0.850037,0 1.650024,-0.380005 2.180054,-1.060059 0.459961,-0.579956 0.659973,-1.309937 0.569946,-2.039917 -0.0592,-0.486938 -0.25,-0.928345 -0.531799,-1.30896 z"
         id="path286" /></g><path
       d="m 6.3794107,39.779968 h 0.2299805 c -0.079956,0 -0.1599731,0 -0.2399902,0.02002 z"
       id="path290" /><path
       d="m 26.949419,39.799988 c -0.08002,-0.02002 -0.159973,-0.02002 -0.23999,-0.02002 h 0.22998 z"
       id="path292" /></g></svg>
