<?xml version="1.0" encoding="UTF-8" standalone="no"?>
<svg
        xmlns="http://www.w3.org/2000/svg"
        viewBox="0 0 100 125"
        version="1.1"
        x="0px"
        y="0px"
        id="svg38"
>
    <defs
            id="defs42"/>
    <g
            transform="translate(0,-952.36216)"
            id="g32">
        <path
                d="m 49.999818,957.36216 c -17.676817,5e-5 -32.006228,14.33 -32.006375,32.00674 0,17.6767 32.980858,57.9933 32.980858,57.9933 0,0 31.032333,-40.3166 31.032333,-57.9933 0,-17.67674 -14.330146,-32.00669 -32.006816,-32.00674 z m 0,6.49684 A 25.509998,25.509998 0 0 1 75.50969,989.3689 25.509998,25.509998 0 0 1 49.999818,1014.8788 25.509998,25.509998 0 0 1 24.490241,989.3689 25.509998,25.509998 0 0 1 49.999818,963.859 Z"
                style="opacity:1;fill:#000000;fill-opacity:1;stroke:none;stroke-width:2;stroke-linecap:butt;stroke-linejoin:miter;stroke-miterlimit:4;stroke-dasharray:none;stroke-dashoffset:0;stroke-opacity:1"
                id="path28"/>
        <path
                d="m 33.433609,982.16607 -0.01955,14.40544 33.171668,0 -0.0044,-9.00194 -5.576853,-0.009 0,-5.39444 -6.627483,0 -0.0059,3.97936 -4.826696,0.003 0,4.17906 -3.841776,0.008 -0.01029,-2.73996 -5.631097,-0.0351 0,-5.39443 z m 1.924563,2.26506 2.776152,0 0,1.14264 -2.776152,0 z m 20.942783,0 2.776151,0 0,1.14264 -2.776151,0 z m -20.942783,2.9453 2.776152,0 0,1.14231 -2.776152,0 z m 20.942783,0 2.776151,0 0,1.14231 -2.776151,0 z m -5.361935,0.68685 2.009237,0 0,0.82653 -2.009237,0 z m 0,2.13137 2.009237,0 0,0.82651 -2.009237,0 z m -15.580848,0.12708 2.776152,0 0,1.14232 -2.776152,0 z m 5.723709,0 2.774535,0 0,1.14232 -2.774535,0 z m 15.219074,0 2.776151,0 0,1.14232 -2.776151,0 z m 5.723856,0 2.774387,0 0,1.14232 -2.774387,0 z m -15.226718,2.00393 2.007914,0 0,0.82687 -2.007914,0 z m 4.140927,0 2.009237,0 0,0.82687 -2.009237,0 z m -15.580848,0.9414 2.776152,0 0,1.1423 -2.776152,0 z m 5.723709,0 2.774535,0 0,1.1423 -2.774535,0 z m 15.219074,0 2.776151,0 0,1.1423 -2.776151,0 z m 5.723856,0 2.774387,0 0,1.1423 -2.774387,0 z m -15.226718,1.18996 2.007914,0 0,0.82684 -2.007914,0 z m 4.140927,0 2.009237,0 0,0.82684 -2.009237,0 z"
                style="color:#000000;font-style:normal;font-variant:normal;font-weight:normal;font-stretch:normal;font-size:medium;line-height:normal;font-family:sans-serif;text-indent:0;text-align:start;text-decoration:none;text-decoration-line:none;text-decoration-style:solid;text-decoration-color:#000000;letter-spacing:normal;word-spacing:normal;text-transform:none;direction:ltr;block-progression:tb;writing-mode:lr-tb;baseline-shift:baseline;text-anchor:start;white-space:normal;clip-rule:nonzero;display:inline;overflow:visible;visibility:visible;opacity:1;isolation:auto;mix-blend-mode:normal;color-interpolation:sRGB;color-interpolation-filters:linearRGB;solid-color:#000000;solid-opacity:1;fill:#000000;fill-opacity:1;fill-rule:nonzero;stroke:none;stroke-width:2;stroke-linecap:butt;stroke-linejoin:miter;stroke-miterlimit:4;stroke-dasharray:none;stroke-dashoffset:0;stroke-opacity:1;color-rendering:auto;image-rendering:auto;shape-rendering:auto;text-rendering:auto;enable-background:accumulate"
                id="path30"/>
    </g>
</svg>
