<?xml version="1.0" encoding="UTF-8" standalone="no"?>
<svg
   xmlns="http://www.w3.org/2000/svg"
   viewBox="0 0 35 35"
   version="1.1"
   x="0px"
   y="0px"
   id="svg38"
   width="35"
   height="35">
  <defs
     id="defs42" />
  <g
     transform="translate(-32.499893,-971.86878)"
     id="g32">
    <path
       d="m 33.433609,982.16607 -0.01955,14.40544 h 33.171668 l -0.0044,-9.00194 -5.576853,-0.009 v -5.39444 h -6.627483 l -0.0059,3.97936 -4.826696,0.003 v 4.17906 l -3.841776,0.008 -0.01029,-2.73996 -5.631097,-0.0351 v -5.39443 z m 1.924563,2.26506 h 2.776152 v 1.14264 h -2.776152 z m 20.942783,0 h 2.776151 v 1.14264 h -2.776151 z m -20.942783,2.9453 h 2.776152 v 1.14231 h -2.776152 z m 20.942783,0 h 2.776151 v 1.14231 h -2.776151 z m -5.361935,0.68685 h 2.009237 v 0.82653 H 50.93902 Z m 0,2.13137 h 2.009237 v 0.82651 H 50.93902 Z m -15.580848,0.12708 h 2.776152 v 1.14232 h -2.776152 z m 5.723709,0 h 2.774535 v 1.14232 h -2.774535 z m 15.219074,0 h 2.776151 v 1.14232 h -2.776151 z m 5.723856,0 h 2.774387 v 1.14232 h -2.774387 z m -15.226718,2.00393 h 2.007914 v 0.82687 h -2.007914 z m 4.140927,0 h 2.009237 v 0.82687 H 50.93902 Z m -15.580848,0.9414 h 2.776152 v 1.1423 h -2.776152 z m 5.723709,0 h 2.774535 v 1.1423 h -2.774535 z m 15.219074,0 h 2.776151 v 1.1423 h -2.776151 z m 5.723856,0 h 2.774387 v 1.1423 h -2.774387 z m -15.226718,1.18996 h 2.007914 v 0.82684 h -2.007914 z m 4.140927,0 h 2.009237 v 0.82684 H 50.93902 Z"
       style="color:#000000;font-style:normal;font-variant:normal;font-weight:normal;font-stretch:normal;font-size:medium;line-height:normal;font-family:sans-serif;text-indent:0;text-align:start;text-decoration:none;text-decoration-line:none;text-decoration-style:solid;text-decoration-color:#000000;letter-spacing:normal;word-spacing:normal;text-transform:none;writing-mode:lr-tb;direction:ltr;baseline-shift:baseline;text-anchor:start;white-space:normal;clip-rule:nonzero;display:inline;overflow:visible;visibility:visible;opacity:1;isolation:auto;mix-blend-mode:normal;color-interpolation:sRGB;color-interpolation-filters:linearRGB;solid-color:#000000;solid-opacity:1;fill:#000000;fill-opacity:1;fill-rule:nonzero;stroke:none;stroke-width:2;stroke-linecap:butt;stroke-linejoin:miter;stroke-miterlimit:4;stroke-dasharray:none;stroke-dashoffset:0;stroke-opacity:1;color-rendering:auto;image-rendering:auto;shape-rendering:auto;text-rendering:auto;enable-background:accumulate"
       id="path30" />
  </g>
</svg>
