<?xml version="1.0" encoding="UTF-8" standalone="no"?>
<svg
   viewBox="0 0 100 125"
   version="1.1"
   x="0px"
   y="0px"
   id="svg30">
  <defs
     id="defs34" />
  <g
     transform="translate(0,-952.36216)"
     id="g24">
    <path
       d="m 50.000199,957.36215 c -17.676814,5e-5 -32.006665,14.33002 -32.006812,32.00676 0,17.67669 32.981295,57.99329 32.981295,57.99329 0,0 31.031888,-40.3166 31.031888,-57.99329 0,-17.67674 -14.329704,-32.00671 -32.006371,-32.00676 z m 0,6.49685 A 25.509995,25.509995 0 0 1 75.510067,989.36891 25.509995,25.509995 0 0 1 50.000199,1014.8788 25.509995,25.509995 0 0 1 24.490184,989.36891 25.509995,25.509995 0 0 1 50.000199,963.859 Z"
       style="opacity:1;fill:#000000;fill-opacity:1;stroke:none;stroke-width:2;stroke-linecap:butt;stroke-linejoin:miter;stroke-miterlimit:4;stroke-dasharray:none;stroke-dashoffset:0;stroke-opacity:1"
       id="path10" />
    <rect
       ry="2.9760077"
       rx="2.1882391"
       y="999.57825"
       x="39.434814"
       height="2.0731785"
       width="18.510525"
       style=""
       fill="#000000"
       fill-opacity="1"
       stroke="none"
       id="rect12" />
    <rect
       style=""
       width="28.728333"
       height="1.6289259"
       x="34.325909"
       y="999.20807"
       rx="2.7584276"
       ry="2.3382921"
       fill="#000000"
       fill-opacity="1"
       stroke="none"
       id="rect14" />
    <path
       style=""
       d="m 37.238287,985.70554 c -0.388753,0 -0.702073,0.29367 -0.702073,0.65718 0,0.0227 0.0017,0.0452 0.0041,0.0674 -0.07565,0.90386 0.54244,3.40332 1.571501,6.20436 0.975079,2.65411 2.026604,4.78219 2.642979,5.43903 0.08158,0.16842 0.216288,0.27756 0.369404,0.27756 l 2.416438,0 c 0.04164,0.0153 0.08006,0.0144 0.114291,0 0.0014,2e-5 0.0027,0 0.0041,0 l 10.063729,0 0.002,0 c 0.03458,0.015 0.07209,0.0155 0.114291,0 l 2.416438,0 c 0.140712,0 0.266307,-0.091 0.348996,-0.23674 0.0073,-0.0128 0.0138,-0.0272 0.02041,-0.0408 6.79e-4,-7.3e-4 0.0014,-0.001 0.002,-0.002 0.616651,-0.65935 1.66693,-2.78579 2.640937,-5.43698 1.029061,-2.80105 1.64715,-5.3005 1.571501,-6.20437 0.0024,-0.0221 0.0041,-0.0446 0.0041,-0.0674 0,-0.36351 -0.31332,-0.65717 -0.702073,-0.65717 l -3.324643,0 -2.247042,0 0,2.27969 1.024537,0 c 0.562955,0 1.016373,0.49628 1.016373,1.11434 l 0,2.48379 c 0,0.61806 -0.453418,1.11638 -1.016373,1.11638 l -2.681756,0 c -0.562956,0 -1.016374,-0.49832 -1.016374,-1.11638 l 0,-2.48379 c 0,-0.61806 0.453418,-1.11434 1.016374,-1.11434 l 1.083723,0 0,-2.27969 -16.757914,0 z m 2.012338,1.85315 2.320515,7.58198 c -1.564872,-2.21381 -2.377566,-4.87153 -2.320515,-7.58198 z"
       fill="#000000"
       fill-opacity="1"
       stroke="none"
       id="path16" />
    <path
       style="color:#000000;text-indent:0;text-decoration-line:none;text-transform:none;direction:ltr;block-progression:tb;baseline-shift:baseline;enable-background:accumulate;"
       d="m 62.04147,987.16479 c -1.999319,0 -3.634861,1.63351 -3.634861,3.63282 0,1.99932 1.635542,3.63487 3.634861,3.63487 1.999318,0 3.63282,-1.63555 3.63282,-3.63487 0,-1.99931 -1.633502,-3.63282 -3.63282,-3.63282 z m 0,1.28578 c 1.304512,0 2.347047,1.04253 2.347047,2.34704 0,1.30452 -1.042535,2.34909 -2.347047,2.34909 -1.304513,0 -2.349088,-1.04457 -2.349088,-2.34909 0,-1.30451 1.044575,-2.34704 2.349088,-2.34704 z"
       display="inline"
       overflow="visible"
       visibility="visible"
       fill="#000000"
       fill-opacity="1"
       stroke="none"
       marker="none"
       id="path18" />
    <path
       d="m 47.158281,983.71387 c -0.01179,-0.14071 -0.01179,-0.28215 -0.0029,-0.42286 0.03613,-0.64754 0.670384,-1.46084 1.407071,-2.5423 l -0.0012,0 c 0.471479,-0.67775 0.892864,-1.33856 0.940748,-1.66049 0.188591,-1.30172 -2.120182,-2.01262 -2.223319,-2.00157 0.216586,0.36466 0.223953,0.72268 0.203326,1.08734 -0.03831,0.64755 -0.672594,1.46159 -1.410017,2.54157 l 0.0012,0 c -0.470005,0.67701 -0.909069,1.33708 -0.954744,1.65975 -0.116397,0.79783 0.712376,1.37319 1.395283,1.69659 0.430225,0.20406 0.803724,0.30794 0.843505,0.30352 -0.132603,-0.22101 -0.181961,-0.44128 -0.198905,-0.66155"
       style=""
       fill="#000000"
       fill-opacity="1"
       fill-rule="nonzero"
       stroke="none"
       id="path20" />
    <path
       d="m 51.433334,983.03944 c -0.0088,-0.11934 -0.0088,-0.23721 -0.0029,-0.35582 0.0287,-0.54662 0.523783,-1.23026 1.099135,-2.13933 0.36687,-0.57094 0.695431,-1.1264 0.732266,-1.39676 0.147336,-1.09619 -1.885916,-1.93748 -1.966951,-1.92791 0.170174,0.30646 0.176067,0.60851 0.159861,0.91497 -0.03165,0.54367 -0.525257,1.22879 -1.102083,2.13712 l 0.0012,0 c -0.368343,0.56946 -0.69617,1.12492 -0.732267,1.39602 -0.06925,0.50758 0.321195,0.95917 0.783098,1.29878 0.531887,0.39265 1.140389,0.63428 1.182381,0.62839 -0.1024,-0.18564 -0.140708,-0.37129 -0.153968,-0.55546"
       style=""
       fill="#000000"
       fill-opacity="1"
       fill-rule="nonzero"
       stroke="none"
       id="path22" />
  </g>
</svg>
