<?xml version="1.0" encoding="UTF-8" standalone="no"?>
<svg version="1.1"
     x="0px"
     y="0px"
     viewBox="0 0 64 80"
     style="enable-background:new 0 0 64 64;"
     id="svg24"
     xmlns="http://www.w3.org/2000/svg"
>
    <g
            id="g16">
        <path
                d="M42.3931274,25.0812378c-0.0043335-0.0018311-0.0089111-0.0027466-0.0132446-0.0045166    c-0.0031738-0.0013428-0.005127-0.0041504-0.0083008-0.0054321l-10-4    c-0.0559082-0.0220947-0.1130371-0.019104-0.1698608-0.0308228c-0.0667114-0.0137939-0.1331787-0.0360107-0.1995239-0.0361938    c-0.0820313-0.0003052-0.1642456,0.0236206-0.246521,0.0441895c-0.0424805,0.0105591-0.0853882,0.0064087-0.1272583,0.0228271    l-10,4c-0.0042114,0.001709-0.0067749,0.0054321-0.0109863,0.0072021    c-0.0852661,0.0355225-0.1533813,0.0916748-0.2228394,0.1460571c-0.0325317,0.0252686-0.0720215,0.0396118-0.1014404,0.0689697    c-0.0285034,0.0285645-0.0423584,0.0670776-0.0670166,0.0986328c-0.0552979,0.0701904-0.1119995,0.1393433-0.1480103,0.2258301    c-0.0016479,0.0039673-0.005249,0.0064087-0.0068359,0.010437c-0.0182495,0.0456543-0.0142822,0.0926514-0.0254517,0.1390991    C21.0270996,25.8451538,21.0031738,25.9225464,21.0032349,26c-0.000061,0.0774536,0.0238647,0.1548462,0.0426025,0.2324829    c0.0111694,0.0464478,0.0072021,0.0934448,0.0254517,0.1390991c0.0018311,0.0045166,0.0053101,0.0077515,0.0072021,0.012207    c0.0081177,0.0195313,0.0221558,0.0343628,0.0313721,0.0530396c0.0425415,0.0866089,0.0961914,0.1672974,0.1624146,0.2388916    c0.024353,0.026123,0.052002,0.0479736,0.0787964,0.071167c0.0661621,0.0575562,0.1405029,0.1065674,0.2227783,0.1460571    c0.0201416,0.0097046,0.0335083,0.0273438,0.0545654,0.0357666L25,28.2773438V34    c0,0.4306641,0.2753906,0.8125,0.6835938,0.9487305l6,2C31.7866211,36.9829102,31.8930664,37,32,37    s0.2133789-0.0170898,0.3164063-0.0512695l6-2C38.7246094,34.8125,39,34.4306641,39,34v-5.7226563l2-0.7999878V32    c0,0.5522461,0.4477539,1,1,1s1-0.4477539,1-1v-5.9794312v-0.0030518V26c0-0.0029297-0.001709-0.0053711-0.001709-0.0083008    c-0.0007324-0.0776978-0.0258789-0.1499023-0.0441284-0.2243042c-0.0111694-0.0463867-0.0072021-0.0933838-0.0254517-0.1389771    c-0.0012817-0.0032349-0.0040894-0.005127-0.0054321-0.0083008c-0.0015259-0.0037842-0.0018311-0.0079346-0.003479-0.0116577    c-0.0319824-0.0751343-0.0861816-0.135498-0.1347046-0.1998291c-0.0040283-0.0053101-0.007019-0.0112915-0.0111694-0.0165405    c-0.024292-0.0309448-0.0380859-0.0698853-0.0658569-0.0977173c-0.0007935-0.0007935-0.0013428-0.0014648-0.0021362-0.0022583    c-0.026062-0.026001-0.0628052-0.0387573-0.0916138-0.0617676c-0.0200806-0.0160522-0.0424805-0.0285034-0.0637817-0.0429688    C42.4979248,25.1516113,42.4522705,25.1065674,42.3931274,25.0812378z M32,28.9226685L24.6933594,26L32,23.0773315L39.3066406,26    L32,28.9226685z"
                id="path12"/>
        <path
                d="M32,7c-11.5795898,0-21,9.4204102-21,21c0,16.3779297,19.6489258,28.3554688,20.4853516,28.8574219    C31.644043,56.9526367,31.8217773,57,32,57s0.355957-0.0473633,0.5146484-0.1425781C33.3510742,56.3554688,53,44.3779297,53,28    C53,16.4204102,43.5795898,7,32,7z M32,43c-8.2709961,0-15-6.7290039-15-15s6.7290039-15,15-15s15,6.7290039,15,15    S40.2709961,43,32,43z"
                id="path14"/>
    </g>
</svg>
