<?xml version="1.0" encoding="UTF-8" standalone="no"?>
<svg
   xmlns="http://www.w3.org/2000/svg"
   version="1.1"
   x="0px"
   y="0px"
   viewBox="0 0 21.996771 21.995729"
   id="svg24"
   width="21.996771"
   height="21.995729">
  <defs
     id="defs42" />
  <g
     id="g16"
     transform="translate(-21.003235,-18.004298)">
    <path
       d="m 42.393127,25.081238 c -0.0043,-0.0018 -0.0089,-0.0027 -0.01324,-0.0045 -0.0032,-0.0013 -0.0051,-0.0041 -0.0083,-0.0054 l -10,-4 c -0.05591,-0.0221 -0.113037,-0.0191 -0.169861,-0.03082 -0.06671,-0.01379 -0.133179,-0.03601 -0.199524,-0.03619 -0.08203,-3.06e-4 -0.164245,0.02362 -0.246521,0.04419 -0.04248,0.01056 -0.08539,0.0064 -0.127258,0.02283 l -10,4 c -0.0042,0.0017 -0.0068,0.0054 -0.01099,0.0072 -0.08527,0.03552 -0.153382,0.09167 -0.22284,0.146057 -0.03253,0.02527 -0.07202,0.03961 -0.10144,0.06897 -0.0285,0.02857 -0.04236,0.06708 -0.06702,0.09863 -0.0553,0.07019 -0.111999,0.139343 -0.14801,0.22583 -0.0016,0.004 -0.0052,0.0064 -0.0068,0.01044 -0.01825,0.04565 -0.01428,0.09265 -0.02545,0.139099 -0.01874,0.07764 -0.04266,0.155029 -0.0426,0.232483 -6.1e-5,0.07745 0.02387,0.154846 0.0426,0.232483 0.01117,0.04645 0.0072,0.09345 0.02545,0.139099 0.0018,0.0045 0.0053,0.0078 0.0072,0.01221 0.0081,0.01953 0.02216,0.03436 0.03137,0.05304 0.04254,0.08661 0.09619,0.167297 0.162415,0.238891 0.02435,0.02612 0.052,0.04797 0.0788,0.07117 0.06616,0.05756 0.140503,0.106568 0.222779,0.146057 0.02014,0.0097 0.03351,0.02734 0.05457,0.03577 L 25,28.277344 V 34 c 0,0.430664 0.275391,0.8125 0.683594,0.948731 l 6,2 C 31.786621,36.98291 31.893066,37 32,37 c 0.106934,0 0.213379,-0.01709 0.316406,-0.05127 l 6,-2 C 38.724609,34.8125 39,34.430664 39,34 v -5.722656 l 2,-0.799988 V 32 c 0,0.552246 0.447754,1 1,1 0.552246,0 1,-0.447754 1,-1 V 26.020569 26.017517 26 c 0,-0.0029 -0.0017,-0.0054 -0.0017,-0.0083 -7.32e-4,-0.0777 -0.02588,-0.149902 -0.04413,-0.224304 -0.01117,-0.04639 -0.0072,-0.09338 -0.02545,-0.138977 -0.0013,-0.0032 -0.0041,-0.0051 -0.0054,-0.0083 -0.0015,-0.0038 -0.0018,-0.0079 -0.0035,-0.01166 -0.03198,-0.07513 -0.08618,-0.135498 -0.134705,-0.199829 -0.004,-0.0053 -0.007,-0.01129 -0.01117,-0.01654 -0.02429,-0.03094 -0.03809,-0.06989 -0.06586,-0.09772 -7.94e-4,-7.93e-4 -0.0013,-0.0015 -0.0021,-0.0023 -0.02606,-0.026 -0.06281,-0.03876 -0.09161,-0.06177 -0.02008,-0.01605 -0.04248,-0.0285 -0.06378,-0.04297 -0.05261,-0.03577 -0.09827,-0.08081 -0.15741,-0.10614 z M 32,28.922668 24.693359,26 32,23.077331 39.306641,26 Z"
       id="path12" />
  </g>
</svg>
