<?xml version="1.0" encoding="UTF-8" standalone="no"?>
<svg
        xmlns="http://www.w3.org/2000/svg"
        viewBox="0 0 100 125"
        version="1.1"
        x="0px"
        y="0px"
        id="svg20">
    <g
            transform="translate(0,-952.36216)"
            id="g14">
        <path
                d="m 50.000236,957.36212 c -17.676816,5e-5 -32.006816,14.32999 -32.006816,32.00674 0,17.67674 32.981005,57.99324 32.981005,57.99324 0,0 31.032187,-40.3165 31.032187,-57.99324 0,-17.67675 -14.329706,-32.00668 -32.006376,-32.00674 z m 0,6.49684 a 25.509998,25.509998 0 0 1 25.509872,25.5099 25.509998,25.509998 0 0 1 -25.509872,25.50994 25.509998,25.509998 0 0 1 -25.510165,-25.50994 25.509998,25.509998 0 0 1 25.510165,-25.5099 z"
                style="opacity:1;fill:#000000;fill-opacity:1;stroke:none;stroke-width:2;stroke-linecap:butt;stroke-linejoin:miter;stroke-miterlimit:4;stroke-dasharray:none;stroke-dashoffset:0;stroke-opacity:1"
                id="path10"/>
        <path
                style="color:#000000;font-style:normal;font-variant:normal;font-weight:normal;font-stretch:normal;font-size:medium;line-height:normal;font-family:sans-serif;text-indent:0;text-align:start;text-decoration:none;text-decoration-line:none;text-decoration-style:solid;text-decoration-color:#000000;letter-spacing:normal;word-spacing:normal;text-transform:none;direction:ltr;block-progression:tb;writing-mode:lr-tb;baseline-shift:baseline;text-anchor:start;white-space:normal;clip-rule:nonzero;display:inline;overflow:visible;visibility:visible;opacity:1;isolation:auto;mix-blend-mode:normal;color-interpolation:sRGB;color-interpolation-filters:linearRGB;solid-color:#000000;solid-opacity:1;fill:#000000;fill-opacity:1;fill-rule:nonzero;stroke:none;stroke-width:2;stroke-linecap:butt;stroke-linejoin:miter;stroke-miterlimit:4;stroke-dasharray:none;stroke-dashoffset:0;stroke-opacity:1;color-rendering:auto;image-rendering:auto;shape-rendering:auto;text-rendering:auto;enable-background:accumulate"
                d="m 50.734957,975.12851 c -1.471059,0.0185 -2.955789,0.26565 -4.400387,0.75683 -4.2306,1.43841 -7.431149,4.74931 -8.847523,8.81151 l -2.619887,0 -1.719201,3.69039 3.607748,0 c -0.02426,0.33718 -0.07953,0.6673 -0.07953,1.00909 0,0.35214 0.06086,0.69082 0.08673,1.03791 l -2.324411,0 -1.57499,3.69039 4.659848,0 c 1.439894,4.0401 4.642208,7.32967 8.865751,8.74667 5.785597,1.9411 12.18449,-0.029 15.875001,-4.89048 l -2.940648,-2.23083 c -2.741606,3.61086 -7.461432,5.06391 -11.759652,3.62193 -2.697946,-0.9052 -4.837575,-2.82477 -6.061522,-5.24729 l 13.964844,0 1.571168,-3.69039 -16.585172,0 c -0.03513,-0.34752 -0.08673,-0.69013 -0.08673,-1.04512 0,-0.33956 0.04807,-0.66895 0.07938,-1.00188 l 17.43926,0 1.719053,-3.69039 -18.138259,0 c 1.209688,-2.4499 3.345936,-4.39738 6.058141,-5.31934 4.29234,-1.45937 9.017899,-0.024 11.773911,3.57506 l 2.929917,-2.24164 c -2.782326,-3.6341 -7.079959,-5.63686 -11.492842,-5.58242 z"
                id="path12"/>
    </g>
</svg>
