<?xml version="1.0" encoding="UTF-8" standalone="no"?>
<svg
   xmlns="http://www.w3.org/2000/svg"
   viewBox="0 0 29.4006 28.482779"
   version="1.1"
   x="0px"
   y="0px"
   id="svg20"
   width="29.4006"
   height="28.482779">
  <defs
     id="defs33" />
  <g
     transform="translate(-32.863506,-975.12743)"
     id="g14">
    <path
       style="color:#000000;font-style:normal;font-variant:normal;font-weight:normal;font-stretch:normal;font-size:medium;line-height:normal;font-family:sans-serif;text-indent:0;text-align:start;text-decoration:none;text-decoration-line:none;text-decoration-style:solid;text-decoration-color:#000000;letter-spacing:normal;word-spacing:normal;text-transform:none;writing-mode:lr-tb;direction:ltr;baseline-shift:baseline;text-anchor:start;white-space:normal;clip-rule:nonzero;display:inline;overflow:visible;visibility:visible;opacity:1;isolation:auto;mix-blend-mode:normal;color-interpolation:sRGB;color-interpolation-filters:linearRGB;solid-color:#000000;solid-opacity:1;fill:#000000;fill-opacity:1;fill-rule:nonzero;stroke:none;stroke-width:2;stroke-linecap:butt;stroke-linejoin:miter;stroke-miterlimit:4;stroke-dasharray:none;stroke-dashoffset:0;stroke-opacity:1;color-rendering:auto;image-rendering:auto;shape-rendering:auto;text-rendering:auto;enable-background:accumulate"
       d="m 50.734957,975.12851 c -1.471059,0.0185 -2.955789,0.26565 -4.400387,0.75683 -4.2306,1.43841 -7.431149,4.74931 -8.847523,8.81151 H 34.86716 l -1.719201,3.69039 h 3.607748 c -0.02426,0.33718 -0.07953,0.6673 -0.07953,1.00909 0,0.35214 0.06086,0.69082 0.08673,1.03791 h -2.324411 l -1.57499,3.69039 h 4.659848 c 1.439894,4.0401 4.642208,7.32967 8.865751,8.74667 5.785597,1.9411 12.18449,-0.029 15.875001,-4.89048 l -2.940648,-2.23083 c -2.741606,3.61086 -7.461432,5.06391 -11.759652,3.62193 -2.697946,-0.9052 -4.837575,-2.82477 -6.061522,-5.24729 h 13.964844 l 1.571168,-3.69039 H 40.453124 c -0.03513,-0.34752 -0.08673,-0.69013 -0.08673,-1.04512 0,-0.33956 0.04807,-0.66895 0.07938,-1.00188 h 17.43926 l 1.719053,-3.69039 H 41.465828 c 1.209688,-2.4499 3.345936,-4.39738 6.058141,-5.31934 4.29234,-1.45937 9.017899,-0.024 11.773911,3.57506 l 2.929917,-2.24164 c -2.782326,-3.6341 -7.079959,-5.63686 -11.492842,-5.58242 z"
       id="path12" />
  </g>
</svg>
