<?xml version="1.0" encoding="UTF-8" standalone="no"?>
<svg


        xmlns="http://www.w3.org/2000/svg"
        version="1.1"
        x="0px"
        y="0px"
        viewBox="0 0 78.548958 111.1769"
        enable-background="new 0 0 100 100"

        id="svg16"
        width="78.548958"
        height="111.1769">
    <path
            d="M 39.273862,0 C 17.61907,0 0,17.620306 0,39.276333 0,45.172415 1.773889,51.299499 5.492139,58.134408 l 30.729298,51.310602 c 0.643592,1.07224 1.802301,1.73189 3.05366,1.73189 1.251358,0 2.411304,-0.65965 3.05613,-1.73189 L 73.133408,58.004702 c 3.642897,-6.713851 5.41555,-12.839698 5.41555,-18.728369 C 78.548958,17.620306 60.927417,0 39.273862,0 Z m 0,69.159452 c -16.41836,0 -29.725001,-13.306641 -29.725001,-29.720059 0,-16.415889 13.306641,-29.7225303 29.725001,-29.7225303 16.413418,0 29.72035,15.7117773 29.720059,29.7225303 -2.91e-4,14.01017 -13.307878,29.720059 -29.720059,29.720059 z"
            id="path10"
            style="stroke-width:1.2353"/>
    <path
            style="fill:#ffffff;stroke-width:0.187406"
            d="M 34.1506,68.609876 C 28.120656,67.519318 22.788789,64.706574 18.368922,60.284496 14.079559,55.992987 11.510511,51.231177 10.189945,45.124503 9.586185,42.332549 9.591723,36.590244 10.200905,33.75562 c 1.425816,-6.634514 4.559275,-12.071485 9.509391,-16.500067 6.968186,-6.234033 17.10414,-8.8478733 25.776523,-6.647201 11.066608,2.808221 20.314075,12.481129 22.867251,23.919289 0.571593,2.560717 0.611561,7.094953 0.08405,9.535326 -1.349189,6.241662 -4.502279,11.761514 -9.42054,16.491754 -4.299335,4.134976 -9.060354,6.753244 -14.495733,7.971767 -2.246467,0.503621 -7.800768,0.54828 -10.371255,0.08339 z"
            id="path72"/>
    <path
            style="fill:#ffffff;stroke-width:0.187406"
            d="M 34.204625,68.618973 C 28.092972,67.511554 22.816919,64.734719 18.368922,60.284496 14.064251,55.977673 11.504248,51.230988 10.192766,45.124503 9.631308,42.510259 9.588679,37.003731 10.108382,34.224136 12.111116,23.512629 19.691273,14.775403 29.931957,11.374601 c 8.989437,-2.9852803 17.768405,-1.6236223 25.632796,3.975762 3.09246,2.201808 6.532342,5.869666 8.697284,9.273691 1.847783,2.905347 3.472987,6.886015 4.187262,10.256004 0.472112,2.227459 0.465945,6.977007 -0.01192,9.182909 -0.850371,3.925408 -2.773497,8.283041 -5.12782,11.61919 -1.63019,2.310028 -5.797024,6.47658 -8.105538,8.104989 -3.085947,2.176803 -7.002348,3.914389 -10.682159,4.739342 -2.222228,0.498186 -7.802183,0.548207 -10.31723,0.09248 z"
            id="path74"/>
    <path
            style="fill:#ffffff;stroke-width:0.187406"
            d="M 34.204625,68.609181 C 28.151589,67.542354 22.823758,64.741561 18.368922,60.284496 14.064251,55.977673 11.504248,51.230988 10.192766,45.124503 9.631813,42.512613 9.588771,37.00533 10.107575,34.224136 12.581767,20.960518 23.368034,11.164348 36.8545,9.9323737 c 6.426531,-0.587057 12.952172,1.2996863 18.716203,5.4113733 3.079503,2.196719 6.528189,5.879106 8.691334,9.280307 1.847783,2.905347 3.472987,6.886015 4.187262,10.256004 0.472112,2.227459 0.465945,6.977007 -0.01192,9.182909 -0.853154,3.938257 -2.787423,8.314563 -5.132223,11.61172 -1.436163,2.01947 -4.385425,5.170307 -6.320775,6.752787 -3.917133,3.202927 -8.764185,5.46926 -13.385724,6.258754 -2.425869,0.414411 -6.809563,0.378457 -9.394025,-0.07705 z"
            id="path76"/>
    <path
            style="fill:#ffffff;stroke-width:0.187406"
            d="M 35.620056,68.861385 C 34.109906,68.672127 31.174072,67.958518 29.480753,67.369112 20.601791,64.278548 13.333136,56.577815 10.817162,47.596083 9.934461,44.444946 9.760798,43.111134 9.759339,39.471512 c -0.0016,-3.914469 0.297881,-5.89582 1.402801,-9.281836 3.224863,-9.882563 11.519245,-17.374416 21.788287,-19.680145 8.903389,-1.9990973 17.779792,0.423838 25.146202,6.863997 5.115839,4.472576 8.972318,10.993942 10.35267,17.50653 0.46587,2.198004 0.468846,6.978195 0.0057,9.137521 -1.019933,4.755118 -3.365782,9.602537 -6.509215,13.45053 -1.747333,2.138975 -5.100347,5.219078 -7.23647,6.647474 -3.469154,2.319777 -7.3997,3.936705 -11.110652,4.570645 -1.625824,0.277739 -6.33512,0.381124 -7.978594,0.175157 z"
            id="path78"/>
    <path
            style="fill:#ffffff;stroke-width:0.187406"
            d="M 35.620056,68.861385 C 32.807942,68.50896 28.66753,67.252256 26.152781,65.987866 20.37481,63.082759 15.076322,57.67825 12.462606,52.023756 8.669216,43.817161 8.760871,34.262092 12.708847,26.353072 17.351784,17.051829 26.175522,11.004494 36.651539,9.9439847 c 14.214066,-1.438919 28.598427,9.8414203 31.79776,24.9360733 0.46587,2.198004 0.468846,6.978195 0.0057,9.137521 -2.325291,10.840935 -10.809397,20.355605 -21.167827,23.73908 -2.831675,0.924938 -4.973105,1.236135 -8.279964,1.203266 -1.553698,-0.01544 -3.07791,-0.05979 -3.387131,-0.09854 z"
            id="path80"/>
    <path
            style="fill:#ffffff;stroke-width:0.187406"
            d="M 35.620056,68.861385 C 32.686025,68.493681 28.5606,67.219286 25.950439,65.874322 15.895364,60.693139 9.664284,50.579056 9.664284,39.439176 c 0,-11.332611 6.575069,-21.786756 16.772864,-26.668302 2.323223,-1.112096 5.408652,-2.11277 7.871064,-2.552763 2.752397,-0.4918083 7.452101,-0.4558743 9.887277,0.0756 11.75855,2.566283 21.204192,11.967905 24.136616,24.024129 0.576293,2.36935 0.639953,7.313021 0.124904,9.69974 -2.647955,12.270517 -13.120911,22.663547 -24.858358,24.668649 -1.625825,0.277739 -6.33512,0.381124 -7.978595,0.175156 z"
            id="path82"/>
    <path
            style="fill:#ffffff;stroke-width:0.187406"
            d="M 34.683025,68.71184 C 25.784965,67.292903 17.999483,61.864985 13.428868,53.893769 9.369821,46.814734 8.546937,37.632504 11.270393,29.808214 14.827799,19.588051 23.595766,12.132251 34.308212,10.218111 c 2.766657,-0.4943563 7.438044,-0.4556183 9.967843,0.08266 11.694903,2.488384 21.403062,12.28934 24.166229,24.397223 0.235538,1.032106 0.321286,2.287009 0.326176,4.773517 0.006,3.047347 -0.04191,3.567399 -0.495711,5.381826 -3.005961,12.018761 -13.222978,21.888081 -24.674098,23.834411 -2.122871,0.360821 -6.726014,0.373261 -8.915626,0.02409 z"
            id="path84"/>
    <path
            style="fill:#ffffff;stroke-width:0.187406"
            d="M 34.683025,68.71184 C 23.170633,66.876006 13.54298,58.185965 10.61812,46.990553 9.547887,42.894044 9.386873,37.469026 10.218866,33.538497 12.460966,22.9463 20.119343,14.462749 30.37268,11.213153 c 3.292342,-1.043444 5.174582,-1.3262953 8.808096,-1.3236243 3.561643,0.0026 5.642937,0.3387763 8.655999,1.3980683 8.974445,3.155117 16.409734,10.718413 19.605538,19.94307 1.107891,3.19792 1.340086,4.647826 1.334728,8.334549 -0.0042,2.91931 -0.0598,3.500266 -0.505699,5.288122 -1.567824,6.286257 -4.929335,11.819827 -10.027345,16.506574 -4.111902,3.780191 -9.587698,6.515328 -14.70556,7.345362 -2.100403,0.340652 -6.738819,0.344091 -8.855412,0.0066 z"
            id="path86"/>
    <path
            style="fill:#ffffff;stroke-width:0.187406"
            d="M 34.683025,68.71119 C 26.877537,67.463092 19.735718,63.009136 15.03031,56.454884 12.770165,53.306685 10.924501,48.919858 10.09264,44.718889 9.583902,42.149719 9.636765,36.210843 10.19131,33.634226 12.184943,24.37103 18.085998,16.791333 26.437152,12.767017 c 5.74848,-2.7701213 12.046866,-3.6230683 17.93261,-2.428489 10.258574,2.082094 19.469252,10.421002 23.076258,20.892139 1.122938,3.259895 1.340045,4.643128 1.322861,8.428252 -0.01419,3.124608 -0.05702,3.532207 -0.580978,5.528486 -1.239231,4.721463 -3.551413,9.168412 -6.631031,12.75326 -5.064582,5.89546 -11.424878,9.69524 -18.018431,10.764609 -2.10206,0.340922 -6.740943,0.34402 -8.855412,0.0059 z"
            id="path88"/>
    <path
            style="fill:#ffffff;stroke-width:0.187406"
            d="m 34.589322,68.723904 c -6.56533,-1.160943 -12.170243,-4.138855 -16.68536,-8.865 -4.013006,-4.200566 -6.408436,-8.746962 -7.7302,-14.671499 -0.335524,-1.503919 -0.397203,-2.391444 -0.397227,-5.715893 -2.4e-5,-3.352582 0.06101,-4.217228 0.41202,-5.837286 2.011,-9.281499 7.922646,-16.878608 16.23659,-20.865783 8.661199,-4.1537113 17.988198,-3.9194923 26.155181,0.656807 6.196021,3.471887 11.65297,9.647765 14.21283,16.085307 1.664946,4.187007 2.229117,7.320858 2.029848,11.275337 -0.461979,9.167875 -6.785721,19.016675 -15.623566,24.33265 -2.324843,1.398394 -5.476498,2.665268 -8.490176,3.412802 -1.670538,0.41437 -8.166546,0.537974 -10.11994,0.192558 z"
            id="path90"/>
    <path
            style="fill:#ffffff;stroke-width:0.187406"
            d="M 34.914215,68.795489 C 22.522651,66.850913 12.598639,57.293087 10.102699,44.899496 9.58458,42.326777 9.631847,36.217862 10.189862,33.634226 12.723983,21.90112 21.640049,12.879523 33.118171,10.434532 c 11.822693,-2.5183883 23.643358,2.775041 30.943984,13.85707 4.610375,6.998344 5.952564,14.920675 3.762386,22.207647 -2.839174,9.446255 -10.666537,17.804406 -19.648263,20.980642 -3.330618,1.177819 -4.35828,1.350964 -8.433283,1.420877 -2.06147,0.03537 -4.234421,-0.01201 -4.82878,-0.105279 z"
            id="path96"/>
    <path
            style="fill:#ffffff;stroke-width:0.187406"
            d="M 34.874376,68.790512 C 22.517162,66.865392 12.600238,57.301025 10.102699,44.899496 c -0.517258,-2.568445 -0.470828,-8.681912 0.08549,-11.25708 1.708783,-7.909817 6.167693,-14.537614 12.688235,-18.860001 8.506398,-5.6387863 18.808426,-6.5302553 27.736132,-2.4001 7.647316,3.537818 14.207734,10.920443 16.925157,19.046366 1.675072,5.008969 1.773908,10.137026 0.290325,15.06324 -2.85527,9.480877 -10.648662,17.804174 -19.651764,20.98797 -3.330618,1.177819 -4.35828,1.350964 -8.433283,1.420877 -2.06147,0.03537 -4.252348,-0.01424 -4.868619,-0.110256 z"
            id="path98"/>
    <g
            transform="matrix(1.4803134,0,0,1.4803134,-35.799862,-1425.5017)"
            id="g14">
        <path
                style="font-style:normal;font-variant:normal;font-weight:normal;font-stretch:normal;font-size:medium;line-height:normal;font-family:sans-serif;text-indent:0;text-align:start;text-decoration:none;text-decoration-line:none;text-decoration-style:solid;text-decoration-color:#000000;letter-spacing:normal;word-spacing:normal;text-transform:none;writing-mode:lr-tb;direction:ltr;baseline-shift:baseline;text-anchor:start;white-space:normal;clip-rule:nonzero;display:inline;overflow:visible;visibility:visible;opacity:1;isolation:auto;mix-blend-mode:normal;color-interpolation:sRGB;color-interpolation-filters:linearRGB;solid-color:#000000;solid-opacity:1;fill-opacity:1;fill-rule:nonzero;stroke:none;stroke-width:2;stroke-linecap:butt;stroke-linejoin:miter;stroke-miterlimit:4;stroke-dasharray:none;stroke-dashoffset:0;stroke-opacity:1;color-rendering:auto;image-rendering:auto;shape-rendering:auto;text-rendering:auto;enable-background:accumulate"
                d="m 50.734957,975.12851 c -1.471059,0.0185 -2.955789,0.26565 -4.400387,0.75683 -4.2306,1.43841 -7.431149,4.74931 -8.847523,8.81151 H 34.86716 l -1.719201,3.69039 h 3.607748 c -0.02426,0.33718 -0.07953,0.6673 -0.07953,1.00909 0,0.35214 0.06086,0.69082 0.08673,1.03791 h -2.324411 l -1.57499,3.69039 h 4.659848 c 1.439894,4.0401 4.642208,7.32967 8.865751,8.74667 5.785597,1.9411 12.18449,-0.029 15.875001,-4.89048 l -2.940648,-2.23083 c -2.741606,3.61086 -7.461432,5.06391 -11.759652,3.62193 -2.697946,-0.9052 -4.837575,-2.82477 -6.061522,-5.24729 h 13.964844 l 1.571168,-3.69039 H 40.453124 c -0.03513,-0.34752 -0.08673,-0.69013 -0.08673,-1.04512 0,-0.33956 0.04807,-0.66895 0.07938,-1.00188 h 17.43926 l 1.719053,-3.69039 H 41.465828 c 1.209688,-2.4499 3.345936,-4.39738 6.058141,-5.31934 4.29234,-1.45937 9.017899,-0.024 11.773911,3.57506 l 2.929917,-2.24164 c -2.782326,-3.6341 -7.079959,-5.63686 -11.492842,-5.58242 z"
                id="path12"/>
    </g>
</svg>
