<?xml version="1.0" encoding="UTF-8" standalone="no"?>
<svg
        xmlns="http://www.w3.org/2000/svg"
        version="1.1"
        x="0px"
        y="0px"
        viewBox="0 0 100 125"
        style="enable-background:new 0 0 100 100;"
        id="svg40"
>
    <style
            type="text/css"
            id="style30">
	.st0{fill:none;}
	.st1{fill:#FFFFFF;}
</style>
    <path
            d="M50,12.3c-14.1,0-25.5,11.4-25.5,25.6c0,3.7,0.8,7.1,2.1,10.3l22,42.7c0.6,1.2,2.2,1.2,2.8,0l22-42.7  c1.4-3.1,2.1-6.6,2.1-10.3C75.5,23.7,64.1,12.3,50,12.3z M50,58.4c-11.4,0-20.7-9.3-20.7-20.7C29.3,26.3,38.6,17,50,17  s20.7,9.3,20.7,20.7C70.7,49.1,61.4,58.4,50,58.4z"
            id="path32"/>
    <path
            d="M47.3,48.2v-7.8h-7.9V35h7.9v-7.8h5.3V35h7.9v5.4h-7.9v7.8H47.3z"
            id="path34"/></svg>
