<?xml version="1.0" encoding="UTF-8" standalone="no"?>
<svg
        xmlns="http://www.w3.org/2000/svg"
        viewBox="0 0 100 125"
        version="1.1"
        x="0px"
        y="0px"
        id="svg92"
>
    <g
            transform="translate(0,-952.36216)"
            id="g86">
        <path
                style="opacity:1;fill:#000000;fill-opacity:1;stroke:none;stroke-width:2;stroke-linecap:butt;stroke-linejoin:miter;stroke-miterlimit:4;stroke-dasharray:none;stroke-dashoffset:0;stroke-opacity:1"
                d="m 49.999497,957.36217 c -17.676817,4e-5 -32.005934,14.33 -32.006081,32.00674 0,17.67679 32.980564,57.99329 32.980564,57.99329 0,0 31.032627,-40.3165 31.032627,-57.99329 0,-17.67674 -14.330441,-32.0067 -32.00711,-32.00674 z m 0,6.49684 a 25.509998,25.509998 0 0 1 25.510018,25.5099 25.509998,25.509998 0 0 1 -25.510018,25.50989 25.509998,25.509998 0 0 1 -25.509872,-25.50989 25.509998,25.509998 0 0 1 25.509872,-25.5099 z"
                id="path82"/>
        <path
                style="color:#000000;font-style:normal;font-variant:normal;font-weight:normal;font-stretch:normal;font-size:medium;line-height:normal;font-family:sans-serif;text-indent:0;text-align:start;text-decoration:none;text-decoration-line:none;text-decoration-style:solid;text-decoration-color:#000000;letter-spacing:normal;word-spacing:normal;text-transform:none;direction:ltr;block-progression:tb;writing-mode:lr-tb;baseline-shift:baseline;text-anchor:start;white-space:normal;clip-rule:nonzero;display:inline;overflow:visible;visibility:visible;opacity:1;isolation:auto;mix-blend-mode:normal;color-interpolation:sRGB;color-interpolation-filters:linearRGB;solid-color:#000000;solid-opacity:1;fill:#000000;fill-opacity:1;fill-rule:evenodd;stroke:none;stroke-width:5.00000048;stroke-linecap:round;stroke-linejoin:round;stroke-miterlimit:4;stroke-dasharray:none;stroke-dashoffset:0;stroke-opacity:1;color-rendering:auto;image-rendering:auto;shape-rendering:auto;text-rendering:auto;enable-background:accumulate"
                d="m 47.923373,978.73682 a 1.5872081,1.5872081 0 0 0 -1.505457,1.0861 l -3.977167,11.93594 c -0.739131,-0.52282 -1.637613,-0.83232 -2.603423,-0.83232 -2.489348,0 -4.537982,2.04872 -4.537982,4.53729 0,2.48857 2.048634,4.53727 4.537982,4.53727 2.26267,0 4.159891,-1.69274 4.486679,-3.86977 a 1.5873546,1.5873546 0 0 0 0.04219,-0.10814 l 4.701303,-14.1124 11.843443,0 -3.298012,9.89947 c -0.752214,-0.55411 -1.677892,-0.88372 -2.675308,-0.88372 -2.489348,0 -4.537541,2.04872 -4.537541,4.53729 0,2.48857 2.048193,4.53727 4.537541,4.53727 2.163738,0 3.99319,-1.54787 4.434934,-3.58692 a 1.5872081,1.5872081 0 0 0 0.181843,-0.39099 l 5.064106,-15.19709 a 1.5872081,1.5872081 0 0 0 -1.506634,-2.08928 l -15.188497,0 z"
                id="path84"/>
    </g>
</svg>
