<?xml version="1.0" encoding="UTF-8" standalone="no"?>
<svg
        xmlns:svg="http://www.w3.org/2000/svg"
        xmlns="http://www.w3.org/2000/svg"
        version="1.1"
        x="0px"
        y="0px"
        viewBox="0 0 57.234196 80.46904"
        enable-background="new 0 0 35 35"
        xml:space="preserve"
        id="svg18"
        width="57.234196"
        height="80.46904">
    <g
            id="g12"
            transform="translate(11.117098,10.662986)"><path
       d="m 15.5,2.5 v 6 h -9 c -1.3,1.3 -1.4,2.7 0,4 h 9 v 20 c 1.2,1.3 2.8,1.3 4,0 v -20 h 9 c 1.3,-1 1.4,-3.1 0,-4 h -9 v -6 c -1.2,-1.4 -2.7,-1.3 -4,0 z"
       id="path10" /></g>
    <path
            d="M 28.617031,0 C 12.81232,4.5e-5 0,12.812454 0,28.617229 c 0,15.804739 29.488315,51.851814 29.488315,51.851814 0,0 27.745748,-36.047075 27.74588,-51.851814 C 57.234195,12.812454 44.421873,4.5e-5 28.617031,0 Z m 0,5.8088248 A 22.808491,22.808491 0 0 1 51.425145,28.617229 22.808491,22.808491 0 0 1 28.617031,51.425632 22.808491,22.808491 0 0 1 5.8086556,28.617229 22.808491,22.808491 0 0 1 28.617031,5.8088248 Z"
            style="fill:#000000;fill-opacity:1;stroke:none;stroke-width:1.7882;stroke-linecap:butt;stroke-linejoin:miter;stroke-miterlimit:4;stroke-dasharray:none;stroke-dashoffset:0;stroke-opacity:1"
            id="path10-5"/></svg>
