<?xml version="1.0" encoding="UTF-8" standalone="no"?>
<svg
   viewBox="0 0 100 125"
   x="0px"
   y="0px"
   version="1.1"
   id="svg16"
 >
  <path
     fill="#000000"
     fill-rule="evenodd"
     d="M50,95 C48,95 12,72 12,43 C12,22.0131795 29.0131795,5 50,5 C70.9868205,5 88,22.0131795 88,43 C88,72 52,95 50,95 Z M50,72 C67.1208272,72 81,58.1208272 81,41 C81,23.8791728 67.1208272,10 50,10 C32.8791728,10 19,23.8791728 19,41 C19,58.1208272 32.8791728,72 50,72 Z M49.0456672,42.9294236 C38.0518018,54.5307728 36.1961876,58.4173689 34.1925221,60.4210344 C33.5143506,61.0992058 32.1738542,60.9508077 30.391371,60.0107407 C29.451304,58.2282575 29.3029058,56.8877611 29.9810773,56.2095896 C31.9873425,54.2033244 35.8814278,52.3454948 47.5178851,41.3136049 L49.0456672,42.9294236 L49.0456672,42.9294236 Z M50.4240046,38.5222645 C51.7642723,37.2190647 53.1931571,35.8088256 54.7172302,34.2810834 L54.7241632,34.2741336 C56.3619473,32.6363495 53.5543174,30.7645962 57.0638547,27.2550589 C60.5733921,23.7455216 65.6310615,20.0916671 65.7207135,20.0020151 C65.8103655,19.9123631 66.0131749,20.0605074 65.8961904,20.177492 C65.7792058,20.2944765 59.1695771,27.0210898 58.935608,27.2550589 C58.7016388,27.4890281 58.8186234,27.8399818 58.9941003,28.0154587 L59.1110848,28.1324432 C59.2921596,28.313518 59.6375154,28.4249047 59.8714846,28.1909355 C60.1054538,27.9569664 67.3000053,21.3473377 67.4169899,21.2303532 C67.5339744,21.1133686 67.7679436,21.3473377 67.650959,21.4643223 C67.5339744,21.5813069 60.6903766,28.7758584 60.4564075,29.0098276 C60.2224383,29.2437967 60.3467059,29.6020334 60.5148998,29.7702273 L60.6318844,29.8872119 C60.8187855,30.0741131 61.158315,30.1796734 61.3922841,29.9457042 C61.6262533,29.711735 68.8208048,22.8681372 68.9377894,22.7511527 C69.054774,22.6341681 69.2887431,22.8681372 69.1717585,22.9851218 C69.054774,23.1021064 62.4451453,30.2966579 62.2111762,30.5306271 C61.977207,30.7645962 62.0962765,31.1176349 62.2696684,31.2910268 L62.386653,31.4080114 C62.5621299,31.5834883 62.9130836,31.7004729 63.1470528,31.4665037 C63.3810219,31.2325346 70.1076352,24.6229059 70.2246197,24.5059213 C70.3416043,24.3889368 70.5170812,24.5644136 70.4000966,24.6813982 C70.283112,24.7983828 65.7825519,30.7027578 63.1470528,33.338257 C59.6375155,36.8477943 57.7657622,34.0401644 56.1279781,35.6779485 L56.1210283,35.6848815 C54.593286,37.2089546 53.1830469,38.6378394 51.8798471,39.9781072 L50.4240046,38.5222645 L50.4240046,38.5222645 Z M44.7252917,34.2821404 C62.0731778,51.6717904 67.0881607,53.8373627 69.4614447,56.2106467 C70.1396161,56.8888182 69.991218,58.2293146 69.0511509,60.0117977 C67.2686678,60.9518648 65.9281713,61.1002629 65.2499999,60.4220915 C62.8767159,58.0488075 60.7111436,53.0338246 43.3214936,35.6859385 C43.3191775,35.6836336 43.3168609,35.6813226 43.3145438,35.6790055 C41.6767597,34.0412215 39.103099,37.5507588 35.5935617,34.0412215 C32.0840244,30.5316841 30.1454309,25.5647438 32.3747639,23.3354107 C34.604097,21.1060777 39.8050065,22.810702 43.3145438,26.3202393 C46.8240812,29.8297766 43.0805747,32.6374065 44.7183588,34.2751906 C44.7206758,34.2775077 44.7229868,34.2798243 44.7252917,34.2821404 L44.7252917,34.2821404 Z"
     id="path10" />
</svg>
