<?xml version="1.0" encoding="UTF-8" standalone="no"?>
<svg
   viewBox="0 0 40.877312 40.867302"
   x="0px"
   y="0px"
   version="1.1"
   id="svg16"
   width="40.877312"
   height="40.867302"
   xmlns="http://www.w3.org/2000/svg"
>
  <path
     fill="#000000"
     fill-rule="evenodd"
     d="M 19.484343,22.954882 C 8.490478,34.556231 6.634864,38.442827 4.631198,40.446492 3.953027,41.124664 2.61253,40.976266 0.83004701,40.036199 c -0.940067,-1.782484 -1.088465,-3.12298 -0.410294,-3.801151 C 2.426018,34.228782 6.320104,32.370953 17.956561,21.339063 Z m 1.378338,-4.40716 c 1.340267,-1.303199 2.769152,-2.713438 4.293225,-4.241181 l 0.0069,-0.0069 c 1.637784,-1.637784 -1.169846,-3.509538 2.339692,-7.0190753 3.509537,-3.509537 8.567207,-7.163392 8.656859,-7.253044 0.08965,-0.08965 0.292461,0.05849 0.175476,0.175477 -0.116984,0.116984 -6.726613,6.843598 -6.960582,7.077567 -0.233969,0.233969 -0.116985,0.584923 0.05849,0.7604 l 0.116985,0.116984 c 0.181075,0.181075 0.52643,0.292462 0.7604,0.05849 0.233969,-0.233969 7.42852,-6.843597 7.545505,-6.960582 0.116984,-0.116984 0.350954,0.116985 0.233969,0.233969 -0.116985,0.116985 -6.960582,7.311536 -7.194552,7.545506 -0.233969,0.233969 -0.109701,0.592205 0.05849,0.760399 l 0.116984,0.116985 c 0.186901,0.1869013 0.526431,0.2924613 0.7604,0.05849 0.233969,-0.233969 7.428521,-7.077567 7.545505,-7.194551 0.116985,-0.116985 0.350954,0.116984 0.233969,0.233969 -0.116984,0.116984 -6.726613,7.3115363 -6.960582,7.5455053 -0.233969,0.233969 -0.114899,0.587008 0.05849,0.7604 l 0.116985,0.116984 c 0.175477,0.175477 0.526431,0.292462 0.7604,0.05849 0.233969,-0.233969 6.960582,-6.8435983 7.077567,-6.9605833 0.116984,-0.116984 0.292461,0.05849 0.175477,0.175477 -0.116985,0.116985 -4.617545,6.0213603 -7.253044,8.6568593 -3.509538,3.509537 -5.381291,0.701907 -7.019075,2.339691 l -0.0069,0.0069 c -1.527742,1.524073 -2.937981,2.952957 -4.241181,4.293225 z m -5.698713,-4.240124 c 17.347886,17.38965 22.362869,19.555223 24.736153,21.928507 0.678171,0.678171 0.529773,2.018668 -0.410294,3.801151 -1.782483,0.940067 -3.12298,1.088465 -3.801151,0.410293 -2.373284,-2.373283 -4.538856,-7.388266 -21.928506,-24.736153 -0.0023,-0.0023 -0.0046,-0.0046 -0.007,-0.0069 C 12.115386,14.066711 9.541725,17.576249 6.032188,14.066711 2.52265,10.557174 0.58405701,5.5902337 2.81339,3.3609007 c 2.229333,-2.229333 7.430242,-0.524709 10.93978,2.984828 3.509537,3.509538 -0.233969,6.3171673 1.403815,7.9549523 0.0023,0.0023 0.0046,0.0046 0.0069,0.0069 z"
     id="path10"
     />
</svg>
