<?xml version="1.0" encoding="UTF-8" standalone="no"?>
<svg viewBox="0 0 100 125"
   version="1.1"
   x="0px"
   y="0px"
   id="svg54"
   xmlns="http://www.w3.org/2000/svg"
>
  <g
     transform="translate(0,-952.36216)"
     id="g48">
    <path
       d="m 49.999744,957.36216 c -17.676817,5e-5 -32.006228,14.33 -32.006375,32.00674 0,17.6767 32.980858,57.9933 32.980858,57.9933 0,0 31.032333,-40.3166 31.032333,-57.9933 0,-17.67674 -14.330147,-32.00669 -32.006816,-32.00674 z m 0,6.49684 a 25.509998,25.509998 0 0 1 25.509871,25.5099 25.509998,25.509998 0 0 1 -25.509871,25.5099 25.509998,25.509998 0 0 1 -25.509872,-25.5099 25.509998,25.509998 0 0 1 25.509872,-25.5099 z"
       style="opacity:1;fill:#000000;fill-opacity:1;stroke:none;stroke-width:2;stroke-linecap:butt;stroke-linejoin:miter;stroke-miterlimit:4;stroke-dasharray:none;stroke-dashoffset:0;stroke-opacity:1"
       id="path34" />
    <path
       style="color:#000000;font-style:normal;font-variant:normal;font-weight:normal;font-stretch:normal;font-size:medium;line-height:normal;font-family:sans-serif;text-indent:0;text-align:start;text-decoration:none;text-decoration-line:none;text-decoration-style:solid;text-decoration-color:#000000;letter-spacing:normal;word-spacing:normal;text-transform:none;direction:ltr;block-progression:tb;writing-mode:lr-tb;baseline-shift:baseline;text-anchor:start;white-space:normal;clip-rule:nonzero;display:inline;overflow:visible;visibility:visible;opacity:1;isolation:auto;mix-blend-mode:normal;color-interpolation:sRGB;color-interpolation-filters:linearRGB;solid-color:#000000;solid-opacity:1;fill:#000000;fill-opacity:1;fill-rule:evenodd;stroke:none;stroke-width:1;stroke-linecap:butt;stroke-linejoin:miter;stroke-miterlimit:4;stroke-dasharray:none;stroke-dashoffset:0;stroke-opacity:1;color-rendering:auto;image-rendering:auto;shape-rendering:auto;text-rendering:auto;enable-background:accumulate"
       d="m 37.83048,982.21916 0,1.21693 24.338446,0 0,-1.21693 -24.338446,0 z"
       id="path36" />
    <path
       style="opacity:1;fill:#000000;fill-opacity:1;stroke:none;stroke-width:2;stroke-linecap:round;stroke-linejoin:round;stroke-miterlimit:4;stroke-dasharray:none;stroke-dashoffset:0;stroke-opacity:1"
       d="m 39.350462,984.47181 9.735348,0 0,8.51843 -9.735348,0 z"
       id="path38" />
    <path
       style="opacity:1;fill:#000000;fill-opacity:1;stroke:none;stroke-width:2;stroke-linecap:round;stroke-linejoin:round;stroke-miterlimit:4;stroke-dasharray:none;stroke-dashoffset:0;stroke-opacity:1"
       d="m 50.91116,984.47181 9.735347,0 0,8.51843 -9.735347,0 z"
       id="path40" />
    <path
       style="opacity:1;fill:#000000;fill-opacity:1;stroke:none;stroke-width:2;stroke-linecap:round;stroke-linejoin:round;stroke-miterlimit:4;stroke-dasharray:none;stroke-dashoffset:0;stroke-opacity:1"
       d="m 50.91116,994.81562 9.735347,0 0,8.51848 -9.735347,0 z"
       id="path42" />
    <path
       style="opacity:1;fill:#000000;fill-opacity:1;stroke:none;stroke-width:2;stroke-linecap:round;stroke-linejoin:round;stroke-miterlimit:4;stroke-dasharray:none;stroke-dashoffset:0;stroke-opacity:1"
       d="m 39.350462,994.81562 9.735348,0 0,8.51848 -9.735348,0 z"
       id="path44" />
    <path
       style="color:#000000;font-style:normal;font-variant:normal;font-weight:normal;font-stretch:normal;font-size:medium;line-height:normal;font-family:sans-serif;text-indent:0;text-align:start;text-decoration:none;text-decoration-line:none;text-decoration-style:solid;text-decoration-color:#000000;letter-spacing:normal;word-spacing:normal;text-transform:none;direction:ltr;block-progression:tb;writing-mode:lr-tb;baseline-shift:baseline;text-anchor:start;white-space:normal;clip-rule:nonzero;display:inline;overflow:visible;visibility:visible;opacity:1;isolation:auto;mix-blend-mode:normal;color-interpolation:sRGB;color-interpolation-filters:linearRGB;solid-color:#000000;solid-opacity:1;fill:#000000;fill-opacity:1;fill-rule:nonzero;stroke:none;stroke-width:1.59464991;stroke-linecap:butt;stroke-linejoin:miter;stroke-miterlimit:4;stroke-dasharray:none;stroke-dashoffset:0;stroke-opacity:1;color-rendering:auto;image-rendering:auto;shape-rendering:auto;text-rendering:auto;enable-background:accumulate"
       d="m 45.179396,975.4035 -1.858095,2.78091 1.858095,2.77848 3.717711,0 c 0.36507,-0.55152 0.735014,-1.09998 1.10252,-1.64955 l 1.100083,1.64955 3.720149,0 c 0.61576,-0.92778 1.236394,-1.85264 1.85581,-2.77848 l -1.85581,-2.78091 -3.720149,0 -1.100083,1.64955 -1.10252,-1.64955 z m 0.753289,1.13138 2.208848,0 1.10252,1.64953 -1.10252,1.64941 -2.208848,0 -1.100083,-1.64941 z m 5.922752,0 2.208695,0 1.102673,1.64953 -1.102673,1.64941 -2.208695,0 -1.100083,-1.64941 z"
       id="path46" />
  </g>
</svg>
