<?xml version="1.0" encoding="UTF-8" standalone="no"?>
<svg
        xmlns="http://www.w3.org/2000/svg"
        viewBox="0 0 100 125"
        version="1.1"
        x="0px"
        y="0px"
        id="svg20"
>
    <g
            transform="translate(0,-952.36216)"
            id="g14">
        <path
                d="m 49.999957,957.36216 c -17.67667,5e-5 -32.006522,14.33 -32.006522,32.00674 0,17.6767 32.981005,57.9933 32.981005,57.9933 0,0 31.032039,-40.3166 31.032186,-57.9933 0,-17.67674 -14.329852,-32.00669 -32.006669,-32.00674 z m 0,6.49684 a 25.509998,25.509998 0 0 1 25.509578,25.5099 25.509998,25.509998 0 0 1 -25.509578,25.5099 25.509998,25.509998 0 0 1 -25.509871,-25.5099 25.509998,25.509998 0 0 1 25.509871,-25.5099 z"
                style="opacity:1;fill:#000000;fill-opacity:1;stroke:none;stroke-width:2;stroke-linecap:butt;stroke-linejoin:miter;stroke-miterlimit:4;stroke-dasharray:none;stroke-dashoffset:0;stroke-opacity:1"
                id="path10"/>
        <path
                d="m 49.99981,975.04839 a 14.216994,14.321275 0 0 1 0.314734,0.011 c -0.152296,0.0855 -0.297682,0.17317 -0.423222,0.26478 l -0.0088,0.007 -0.0088,0.007 c -2.558,2.08037 -4.731145,4.67618 -6.087689,7.60795 -0.12701,-0.027 -0.25505,-0.055 -0.380296,-0.0807 l 0,0 -0.0029,0 c -0.620794,-0.12233 -1.237766,-0.2579 -1.86194,-0.36686 0.488196,-1.63132 0.779409,-3.3565 0.766473,-5.15456 a 14.216994,14.321275 0 0 1 7.692226,-2.29421 z m 1.972339,0.154 a 14.216994,14.321275 0 0 1 8.171309,4.1517 c -0.06586,-0.0179 -0.129657,-0.034 -0.191104,-0.0481 l -0.01514,-0.004 -0.01514,-0.003 c -0.59007,-0.0878 -1.199398,-0.12163 -1.818721,-0.10832 l 0,0 c -1.857383,0.0398 -3.796206,0.50382 -5.510408,1.2098 -2.157416,0.88837 -3.971727,2.13728 -4.787153,3.56976 -1.093849,-0.32453 -2.160944,-0.60462 -3.179381,-0.84025 1.298478,-2.72449 3.346377,-5.16533 5.766046,-7.13592 0.258725,-0.18777 0.778969,-0.4466 1.218802,-0.63951 0.141417,-0.0622 0.247994,-0.10505 0.364273,-0.15291 z m -10.505128,2.73463 c -0.0491,1.53551 -0.327523,3.01845 -0.761476,4.43495 -0.527005,-0.0628 -1.06386,-0.0939 -1.618944,-0.067 -0.506131,0.0245 -1.02711,0.0987 -1.567787,0.23674 a 14.216994,14.321275 0 0 1 3.948354,-4.60465 z m 17.064843,2.08996 c 0.425574,0.006 0.84218,0.0371 1.244234,0.0959 0.375739,0.0877 0.955078,0.30153 1.46018,0.50161 a 14.216994,14.321275 0 0 1 2.980339,8.7452 14.216994,14.321275 0 0 1 -0.393968,3.27427 c -4.061546,-4.02338 -9.880806,-6.7518 -15.190555,-8.41988 0.716934,-1.08688 2.326323,-2.24813 4.275876,-3.05106 1.75698,-0.72359 3.778419,-1.17164 5.624041,-1.14602 z m -19.019248,3.09586 c 0.312234,0 0.620647,0.0207 0.928324,0.0535 -0.342076,0.96906 -0.751185,1.90481 -1.206601,2.80123 -1.144859,2.15942 -2.538888,3.63203 -3.233184,5.80203 a 14.216994,14.321275 0 0 1 -0.218152,-2.40992 14.216994,14.321275 0 0 1 1.239088,-5.80361 c 0.887898,-0.32621 1.701266,-0.44521 2.490525,-0.44322 z m 1.77021,0.17272 c 0.633877,0.10874 1.277015,0.25255 1.955875,0.38645 0.06924,0.0143 0.140241,0.0299 0.209773,0.0445 -0.29033,0.71718 -0.53215,1.45268 -0.718256,2.20428 -1.2851,5.1945 -1.624236,11.20199 0.923032,16.24807 a 14.216994,14.321275 0 0 1 -7.183008,-8.43347 c 0.02529,-0.29266 0.05763,-0.62322 0.0957,-0.81819 0.490402,-2.48802 2.03511,-3.97062 3.407824,-6.56189 l 0.0029,-0.003 0,-0.003 c 0.494224,-0.97316 0.939202,-1.9971 1.306121,-3.06328 z m 2.993422,0.61268 c 1.021671,0.2335 2.09347,0.51316 3.194817,0.83967 -0.720756,2.13226 -0.413961,4.33193 0.171993,6.31009 1.005501,3.39428 3.525573,6.26215 5.660939,8.7393 l 0,0 0,0 c 0.697235,0.8004 1.932207,1.9261 2.643261,2.5601 a 14.216994,14.321275 0 0 1 -5.950241,1.3317 14.216994,14.321275 0 0 1 -5.08601,-0.9513 c -2.967402,-4.96482 -2.714263,-11.18984 -1.373743,-16.60844 0.187429,-0.75698 0.435276,-1.49894 0.736485,-2.22301 z m 3.994072,1.08325 c 5.404712,1.69462 11.35804,4.50653 15.303159,8.58883 a 14.216994,14.321275 0 0 1 -6.811825,8.38378 c -0.595803,-0.5281 -2.101702,-1.8815 -2.824369,-2.71104 -2.137717,-2.47986 -4.559739,-5.28205 -5.493649,-8.43181 -0.562874,-1.90104 -0.826892,-3.9177 -0.173316,-5.82976 z"
                style="opacity:1;fill:#000000;fill-opacity:1;stroke:none;stroke-width:5;stroke-linecap:square;stroke-linejoin:bevel;stroke-miterlimit:4;stroke-dasharray:none;stroke-dashoffset:0;stroke-opacity:1"
                id="path12"/>
    </g>
</svg>
