<?xml version="1.0" encoding="UTF-8" standalone="no"?>
<svg
   xmlns="http://www.w3.org/2000/svg"
   version="1.1"
   x="0px"
   y="0px"
   viewBox="0 0 40 40"
   id="svg126"
   width="40"
   height="40">
<defs
     id="defs24" />
  <style
     type="text/css"
     id="style100">
        .st0{fill:#010202;}
    </style>
  <g
     id="g114"
     transform="translate(-28.598211,-17.85)">
    <g
       id="g112">
      <path
         class="st0"
         d="m 58.9,28.5 c 1.7,0 3,-1.3 3,-3 0,-1.7 -1.3,-3 -3,-3 -1.7,0 -3,1.3 -3,3 0,1.6 1.3,3 3,3 z"
         id="path102" />
      <path
         class="st0"
         d="m 67,39.2 -4.3,-9.4 c -0.2,-0.5 -0.8,-0.7 -1.3,-0.7 -1.9,0 -2.9,0 -5,0 -0.5,0 -1.1,0.2 -1.3,0.7 l -4.3,9.4 c -0.3,0.6 0,1.4 0.6,1.7 0.3,0.1 0.4,0.1 0.6,0.1 0.5,0 1,-0.3 1.2,-0.8 l 2.1,-4.5 v 4.9 c 0,0 0,0 0,0 v 11.1 c 0,0.9 0.7,1.5 1.5,1.5 0.9,0 1.5,-0.7 1.5,-1.5 v -9.2 h 1.1 v 9.2 c 0,0.9 0.7,1.5 1.5,1.5 0.9,0 1.5,-0.7 1.5,-1.5 v -11 c 0,0 0,0 0,0 v -4.9 l 2.1,4.5 c 0.2,0.5 0.7,0.8 1.2,0.8 0.2,0 0.4,0 0.5,-0.1 0.8,-0.4 1.1,-1.1 0.8,-1.8 z"
         id="path104" />
      <path
         class="st0"
         d="m 38.2,28.5 c 1.7,0 3,-1.3 3,-3 0,-1.7 -1.3,-3 -3,-3 -1.7,0 -3,1.3 -3,3 0,1.6 1.3,3 3,3 z"
         id="path106" />
      <path
         class="st0"
         d="m 42,29.8 c -0.2,-0.5 -0.7,-0.7 -1.1,-0.7 h -5.3 c -0.5,0 -0.9,0.3 -1.1,0.7 l -4.3,9.4 c -0.3,0.6 0,1.4 0.6,1.7 0.2,0.1 0.4,0.1 0.5,0.1 0.5,0 1,-0.3 1.2,-0.8 l 1.3,-2.9 -1.2,5.5 c 0,0.2 0,0.4 0.1,0.5 0.1,0.1 0.3,0.2 0.5,0.2 h 1.3 v 8.2 c 0,0.9 0.7,1.5 1.5,1.5 0.9,0 1.5,-0.7 1.5,-1.5 v -8.2 h 1.1 v 8.2 c 0,0.9 0.7,1.5 1.5,1.5 0.8,0 1.5,-0.7 1.5,-1.5 v -8.2 h 1.3 c 0.2,0 0.4,-0.1 0.5,-0.2 0.1,-0.1 0.2,-0.3 0.1,-0.5 l -1.2,-5.5 1.3,2.9 c 0.2,0.5 0.7,0.8 1.2,0.8 0.2,0 0.4,0 0.5,-0.1 0.6,-0.3 0.9,-1.1 0.6,-1.7 z"
         id="path108" />
      <path
         class="st0"
         d="m 48.6,24.7 c -0.6,0 -1,0.5 -1,1 v 24.5 c 0,0.6 0.5,1 1,1 0.6,0 1,-0.5 1,-1 V 25.7 c 0.1,-0.6 -0.4,-1 -1,-1 z"
         id="path110" />
    </g>
  </g>
</svg>
