<?xml version="1.0" encoding="UTF-8" standalone="no"?>
<svg
        xmlns="http://www.w3.org/2000/svg"
        version="1.1"
        x="0px"
        y="0px"
        viewBox="0 0 100 125"
        style="enable-background:new 0 0 100 100;"
        id="svg126"
>
    <style
            type="text/css"
            id="style100">
        .st0{fill:#010202;}
    </style>
    <g
            id="g114">
        <g
                id="g112">
            <path
                    class="st0"
                    d="M58.9,28.5c1.7,0,3-1.3,3-3c0-1.7-1.3-3-3-3c-1.7,0-3,1.3-3,3C55.9,27.1,57.2,28.5,58.9,28.5z"
                    id="path102"/>
            <path
                    class="st0"
                    d="M67,39.2l-4.3-9.4c-0.2-0.5-0.8-0.7-1.3-0.7c-1.9,0-2.9,0-5,0c-0.5,0-1.1,0.2-1.3,0.7l-4.3,9.4    c-0.3,0.6,0,1.4,0.6,1.7C51.7,41,51.8,41,52,41c0.5,0,1-0.3,1.2-0.8l2.1-4.5v4.9c0,0,0,0,0,0v11.1c0,0.9,0.7,1.5,1.5,1.5    c0.9,0,1.5-0.7,1.5-1.5v-9.2h1.1v9.2c0,0.9,0.7,1.5,1.5,1.5c0.9,0,1.5-0.7,1.5-1.5V40.7c0,0,0,0,0,0v-4.9l2.1,4.5    c0.2,0.5,0.7,0.8,1.2,0.8c0.2,0,0.4,0,0.5-0.1C67,40.6,67.3,39.9,67,39.2z"
                    id="path104"/>
            <path
                    class="st0"
                    d="M38.2,28.5c1.7,0,3-1.3,3-3c0-1.7-1.3-3-3-3c-1.7,0-3,1.3-3,3C35.2,27.1,36.5,28.5,38.2,28.5z"
                    id="path106"/>
            <path
                    class="st0"
                    d="M42,29.8c-0.2-0.5-0.7-0.7-1.1-0.7l-5.3,0c-0.5,0-0.9,0.3-1.1,0.7l-4.3,9.4    c-0.3,0.6,0,1.4,0.6,1.7c0.2,0.1,0.4,0.1,0.5,0.1c0.5,0,1-0.3,1.2-0.8l1.3-2.9l-1.2,5.5c0,0.2,0,0.4,0.1,0.5    c0.1,0.1,0.3,0.2,0.5,0.2h1.3v8.2c0,0.9,0.7,1.5,1.5,1.5c0.9,0,1.5-0.7,1.5-1.5v-8.2h1.1v8.2c0,0.9,0.7,1.5,1.5,1.5    s1.5-0.7,1.5-1.5v-8.2h1.3c0.2,0,0.4-0.1,0.5-0.2c0.1-0.1,0.2-0.3,0.1-0.5l-1.2-5.5l1.3,2.9c0.2,0.5,0.7,0.8,1.2,0.8    c0.2,0,0.4,0,0.5-0.1c0.6-0.3,0.9-1.1,0.6-1.7L42,29.8z"
                    id="path108"/>
            <path
                    class="st0"
                    d="M48.6,24.7c-0.6,0-1,0.5-1,1v24.5c0,0.6,0.5,1,1,1c0.6,0,1-0.5,1-1V25.7    C49.7,25.1,49.2,24.7,48.6,24.7z"
                    id="path110"/>
        </g>
    </g>

</svg>
