<?xml version="1.0" encoding="UTF-8" standalone="no"?>
<svg
        xmlns="http://www.w3.org/2000/svg"
        version="1.1"
        x="0px"
        y="0px"
        viewBox="0 0 100 125"
        enable-background="new 0 0 100 100"
        id="svg144"
>
    <g
            id="g138">
        <path
                d="M50,5.063c-19.838,0-35.918,16.081-35.918,35.918c0,9.919,4.412,18.529,10.521,25.398L50,94.938L75.398,66.38   c6.107-6.87,10.52-15.48,10.52-25.399C85.918,21.144,69.836,5.063,50,5.063z M70.084,61.064C64.943,66.203,57.842,69.383,50,69.383   c-7.845,0-14.944-3.179-20.084-8.318c-5.139-5.141-8.319-12.242-8.319-20.084c0-15.687,12.717-28.402,28.403-28.402   c15.686,0,28.402,12.715,28.402,28.402C78.402,48.823,75.223,55.924,70.084,61.064z"
                id="path134"/>
        <path
                d="M56.174,25.004l4.553-4.961l-1.896-1.741l-5.991,6.53l0.188,0.172h-4.873l4.552-4.961l-1.896-1.741l-5.991,6.53   l0.188,0.172h-8.89l-2.174,2.174v26.716c0,0.843,0.687,1.529,1.529,1.529h0.476v2.006c0,0.396,0.324,0.72,0.72,0.72h1.799   c0.396,0,0.72-0.323,0.72-0.72v-2.006h20.472v2.006c0,0.396,0.322,0.72,0.719,0.72h1.801c0.396,0,0.719-0.323,0.719-0.72v-2.006   h0.465c0.844,0,1.531-0.687,1.531-1.529V27.178l-2.176-2.174H56.174z M37.025,51.316c-0.491,0-0.892-0.401-0.892-0.892   c0-0.491,0.401-0.892,0.892-0.892c0.491,0,0.891,0.4,0.891,0.892C37.917,50.916,37.516,51.316,37.025,51.316z M40.848,51.833   c-0.776,0-1.408-0.632-1.408-1.408c0-0.775,0.632-1.408,1.408-1.408c0.775,0,1.408,0.632,1.408,1.408   C42.256,51.201,41.623,51.833,40.848,51.833z M48.777,43.987c0,0.834-0.683,1.517-1.517,1.517H36.875   c-0.834,0-1.517-0.682-1.517-1.517V32.05c0-0.834,0.683-1.517,1.517-1.517H47.26c0.834,0,1.517,0.682,1.517,1.517V43.987z    M58.037,51.833c-0.775,0-1.408-0.632-1.408-1.408c0-0.775,0.633-1.408,1.408-1.408s1.408,0.632,1.408,1.408   C59.445,51.201,58.813,51.833,58.037,51.833z M61.859,51.316c-0.49,0-0.891-0.401-0.891-0.892c0-0.491,0.4-0.892,0.891-0.892   c0.492,0,0.891,0.4,0.891,0.892C62.75,50.916,62.352,51.316,61.859,51.316z M63.477,31.979v12.079c0,0.795-0.65,1.446-1.445,1.446   H51.354c-0.795,0-1.446-0.65-1.446-1.446V31.979c0-0.795,0.651-1.446,1.446-1.446h10.678   C62.826,30.533,63.477,31.184,63.477,31.979z"
                id="path136"/>
    </g>
</svg>
